<?xml version="1.0" encoding="utf-8"?>
<!-- Generator: Adobe Illustrator 16.0.0, SVG Export Plug-In . SVG Version: 6.00 Build 0)  -->
<!DOCTYPE svg PUBLIC "-//W3C//DTD SVG 1.1//EN" "http://www.w3.org/Graphics/SVG/1.1/DTD/svg11.dtd">
<svg version="1.1" id="Layer_1" xmlns="http://www.w3.org/2000/svg" xmlns:xlink="http://www.w3.org/1999/xlink" x="0px" y="0px"
	 width="48px" height="48px" viewBox="0 0 48 48" enable-background="new 0 0 48 48" xml:space="preserve">
<title>Facebook-black</title>
<desc>Created with Sketch.</desc>
<g id="Icons">
	<g id="Black" transform="translate(-200.000000, -160.000000)">
		<path id="Facebook" fill="#FFFFFF" d="M225.639,208h-22.989c-1.464,0-2.649-1.187-2.649-2.649v-42.701
			c0-1.463,1.186-2.649,2.649-2.649h42.702c1.463,0,2.648,1.186,2.648,2.649v42.701c0,1.464-1.186,2.649-2.648,2.649h-12.232
			v-18.588h6.239l0.935-7.245h-7.174v-4.625c0-2.097,0.582-3.526,3.59-3.526l3.836-0.002v-6.479
			c-0.663-0.088-2.939-0.286-5.59-0.286c-5.53,0-9.316,3.376-9.316,9.576v5.342h-6.255v7.245h6.255V208L225.639,208z"/>
	</g>
</g>
</svg>
