<?xml version="1.0" encoding="utf-8"?>
<!-- Generator: Adobe Illustrator 16.0.0, SVG Export Plug-In . SVG Version: 6.00 Build 0)  -->
<!DOCTYPE svg PUBLIC "-//W3C//DTD SVG 1.1//EN" "http://www.w3.org/Graphics/SVG/1.1/DTD/svg11.dtd">
<svg version="1.1" id="Layer_1" xmlns="http://www.w3.org/2000/svg" xmlns:xlink="http://www.w3.org/1999/xlink" x="0px" y="0px"
	 width="48px" height="48px" viewBox="0 0 48 48" enable-background="new 0 0 48 48" xml:space="preserve">
<title>Skype-black</title>
<desc>Created with Sketch.</desc>
<g id="Icons">
	<g id="Black" transform="translate(-400.000000, -660.000000)">
		<path id="Skype" fill="#FFFFFF" d="M446.62,689.096c0.347-1.564,0.527-3.184,0.527-4.847c0-12.464-10.247-22.571-22.894-22.571
			c-1.332,0-2.639,0.114-3.914,0.331c-2.046-1.271-4.468-2.009-7.062-2.009c-7.335,0-13.278,5.859-13.278,13.093
			c0,2.415,0.666,4.674,1.823,6.621c-0.302,1.464-0.463,2.983-0.463,4.535c0,12.47,10.25,22.574,22.894,22.574
			c1.434,0,2.834-0.131,4.193-0.378c1.871,0.99,4.006,1.555,6.277,1.555c7.332,0,13.275-5.861,13.275-13.09
			C448,692.82,447.504,690.848,446.62,689.096z M435.997,695.038c-1.058,1.479-2.622,2.648-4.653,3.478
			c-2.007,0.824-4.412,1.244-7.152,1.244c-3.288,0-6.045-0.57-8.199-1.697c-1.538-0.818-2.805-1.926-3.768-3.3
			c-0.974-1.38-1.464-2.751-1.464-4.079c0-0.823,0.322-1.541,0.954-2.128c0.626-0.584,1.431-0.876,2.391-0.876
			c0.785,0,1.465,0.23,2.015,0.689c0.527,0.442,0.979,1.096,1.343,1.934c0.406,0.918,0.847,1.691,1.312,2.295
			c0.452,0.59,1.098,1.083,1.922,1.47c0.83,0.384,1.95,0.584,3.324,0.584c1.894,0,3.446-0.4,4.612-1.185
			c1.143-0.766,1.695-1.689,1.695-2.818c0-0.889-0.291-1.59-0.883-2.141c-0.627-0.572-1.448-1.018-2.444-1.329
			c-1.042-0.317-2.452-0.665-4.2-1.026c-2.379-0.501-4.397-1.094-6-1.77c-1.643-0.688-2.966-1.642-3.934-2.835
			c-0.982-1.215-1.481-2.737-1.481-4.526c0-1.703,0.522-3.241,1.555-4.565c1.022-1.316,2.518-2.345,4.445-3.043
			c1.899-0.693,4.157-1.043,6.717-1.043c2.043,0,3.841,0.234,5.343,0.695c1.51,0.462,2.779,1.085,3.778,1.856
			c1.008,0.779,1.759,1.605,2.228,2.468c0.474,0.871,0.717,1.736,0.717,2.573c0,0.807-0.316,1.542-0.94,2.179
			c-0.626,0.646-1.419,0.971-2.351,0.971c-0.847,0-1.514-0.206-1.971-0.606c-0.428-0.375-0.875-0.96-1.368-1.794
			c-0.57-1.068-1.262-1.912-2.055-2.507c-0.771-0.579-2.055-0.868-3.824-0.868c-1.637,0-2.975,0.322-3.965,0.965
			c-0.954,0.615-1.42,1.324-1.42,2.165c0,0.512,0.15,0.943,0.46,1.31c0.321,0.395,0.782,0.734,1.363,1.024
			c0.601,0.298,1.222,0.537,1.843,0.704c0.635,0.175,1.702,0.434,3.167,0.768c1.854,0.39,3.556,0.832,5.061,1.308
			c1.526,0.479,2.842,1.068,3.92,1.761c1.095,0.704,1.961,1.605,2.579,2.684c0.618,1.088,0.931,2.424,0.931,3.979
			C437.6,691.861,437.059,693.555,435.997,695.038z"/>
	</g>
</g>
</svg>
