<?xml version="1.0" encoding="utf-8"?>
<!-- Generator: Adobe Illustrator 16.0.0, SVG Export Plug-In . SVG Version: 6.00 Build 0)  -->
<!DOCTYPE svg PUBLIC "-//W3C//DTD SVG 1.1//EN" "http://www.w3.org/Graphics/SVG/1.1/DTD/svg11.dtd">
<svg version="1.1" id="Layer_1" xmlns="http://www.w3.org/2000/svg" xmlns:xlink="http://www.w3.org/1999/xlink" x="0px" y="0px"
	 width="48px" height="48px" viewBox="0 0 48 48" enable-background="new 0 0 48 48" xml:space="preserve">
<title>Instagram-black</title>
<desc>Created with Sketch.</desc>
<g id="Icons">
	<g id="Black" transform="translate(-500.000000, -160.000000)">
		<path id="Instagram" fill="#FFFFFF" d="M524,160c-6.518,0-7.335,0.028-9.895,0.145c-2.555,0.116-4.299,0.522-5.826,1.115
			c-1.579,0.613-2.917,1.434-4.251,2.769c-1.334,1.334-2.155,2.672-2.769,4.251c-0.593,1.526-0.999,3.271-1.115,5.826
			c-0.117,2.56-0.145,3.377-0.145,9.895c0,6.518,0.028,7.336,0.145,9.895c0.116,2.555,0.522,4.3,1.115,5.826
			c0.613,1.578,1.434,2.917,2.769,4.251c1.334,1.335,2.672,2.155,4.251,2.769c1.526,0.594,3.271,0.999,5.826,1.115
			c2.56,0.117,3.377,0.145,9.895,0.145c6.518,0,7.336-0.027,9.895-0.145c2.555-0.116,4.3-0.521,5.826-1.115
			c1.578-0.613,2.917-1.434,4.251-2.769c1.335-1.334,2.155-2.673,2.769-4.251c0.594-1.526,0.999-3.271,1.115-5.826
			c0.117-2.559,0.145-3.377,0.145-9.895c0-6.518-0.027-7.335-0.145-9.895c-0.116-2.555-0.521-4.299-1.115-5.826
			c-0.613-1.579-1.434-2.917-2.769-4.251c-1.334-1.334-2.673-2.155-4.251-2.769c-1.526-0.593-3.271-0.999-5.826-1.115
			C531.336,160.028,530.518,160,524,160z M524,164.324c6.408,0,7.168,0.024,9.698,0.14c2.34,0.106,3.61,0.498,4.456,0.826
			c1.121,0.436,1.92,0.956,2.76,1.795s1.359,1.639,1.795,2.76c0.329,0.846,0.721,2.116,0.826,4.456
			c0.116,2.531,0.141,3.29,0.141,9.698s-0.024,7.168-0.141,9.698c-0.105,2.34-0.497,3.61-0.826,4.456
			c-0.436,1.121-0.955,1.92-1.795,2.76s-1.639,1.359-2.76,1.795c-0.846,0.329-2.116,0.721-4.456,0.826
			c-2.53,0.116-3.29,0.141-9.698,0.141c-6.409,0-7.167-0.024-9.698-0.141c-2.34-0.105-3.61-0.497-4.456-0.826
			c-1.121-0.436-1.92-0.955-2.76-1.795s-1.36-1.639-1.795-2.76c-0.329-0.846-0.72-2.116-0.826-4.456
			c-0.116-2.53-0.14-3.29-0.14-9.698s0.024-7.167,0.14-9.698c0.106-2.34,0.498-3.61,0.826-4.456c0.436-1.121,0.956-1.92,1.795-2.76
			s1.639-1.36,2.76-1.795c0.846-0.329,2.116-0.72,4.456-0.826C516.833,164.349,517.592,164.324,524,164.324z M524,171.676
			c-6.807,0-12.324,5.518-12.324,12.324s5.518,12.324,12.324,12.324s12.324-5.518,12.324-12.324S530.807,171.676,524,171.676z
			 M524,192c-4.418,0-8-3.582-8-8c0-4.418,3.582-8,8-8c4.418,0,8,3.582,8,8C532,188.418,528.418,192,524,192z M539.691,171.189
			c0,1.59-1.289,2.88-2.881,2.88c-1.59,0-2.879-1.29-2.879-2.88c0-1.591,1.289-2.88,2.879-2.88
			C538.402,168.309,539.691,169.598,539.691,171.189z"/>
	</g>
</g>
</svg>
