<?xml version="1.0" encoding="utf-8"?>
<!-- Generator: Adobe Illustrator 16.0.0, SVG Export Plug-In . SVG Version: 6.00 Build 0)  -->
<!DOCTYPE svg PUBLIC "-//W3C//DTD SVG 1.1//EN" "http://www.w3.org/Graphics/SVG/1.1/DTD/svg11.dtd">
<svg version="1.1" id="Layer_1" xmlns="http://www.w3.org/2000/svg" xmlns:xlink="http://www.w3.org/1999/xlink" x="0px" y="0px"
	 width="48px" height="48px" viewBox="0 0 48 48" enable-background="new 0 0 48 48" xml:space="preserve">
<title>Pinterest-black</title>
<desc>Created with Sketch.</desc>
<g id="Icons">
	<g id="Black" transform="translate(-300.000000, -260.000000)">
		<path id="Pinterest" fill="#FFFFFF" d="M324.001,260C310.748,260,300,270.745,300,284.001c0,9.825,5.91,18.269,14.369,21.981
			c-0.068-1.674-0.011-3.689,0.415-5.513c0.463-1.947,3.087-13.075,3.087-13.075s-0.765-1.533-0.765-3.8
			c0-3.556,2.063-6.212,4.628-6.212c2.182,0,3.238,1.64,3.238,3.604c0,2.193-1.4,5.476-2.12,8.515
			c-0.601,2.549,1.276,4.623,3.788,4.623c4.547,0,7.609-5.84,7.609-12.76c0-5.258-3.543-9.195-9.986-9.195
			c-7.279,0-11.814,5.428-11.814,11.49c0,2.094,0.616,3.567,1.581,4.707c0.446,0.528,0.505,0.737,0.345,1.341
			c-0.113,0.438-0.378,1.505-0.488,1.925c-0.161,0.607-0.652,0.827-1.2,0.602c-3.356-1.369-4.917-5.041-4.917-9.17
			c0-6.816,5.749-14.995,17.152-14.995c9.164,0,15.195,6.635,15.195,13.75c0,9.416-5.232,16.449-12.952,16.449
			c-2.588,0-5.026-1.399-5.862-2.989c0,0-1.394,5.529-1.688,6.596c-0.508,1.85-1.504,3.701-2.416,5.141
			c2.159,0.637,4.439,0.984,6.802,0.984C337.256,308,348,297.256,348,284.001C348,270.745,337.256,260,324.001,260"/>
	</g>
</g>
</svg>
